<?xml version="1.0" encoding="UTF-8"?>
<svg version="1.1" xmlns="http://www.w3.org/2000/svg" width="535" height="594">
<path d="M0 0 C4.30816822 0.00914571 8.61627448 -0.00496572 12.92442989 -0.01591969 C21.3384268 -0.03360818 29.75228014 -0.02990864 38.16628243 -0.01826912 C45.0097071 -0.00919792 51.85309183 -0.00802665 58.69652081 -0.01236439 C59.67429145 -0.01297732 60.65206209 -0.01359025 61.65946215 -0.01422176 C63.64639058 -0.01550079 65.633319 -0.01679764 67.62024741 -0.01811212 C86.20492068 -0.02948927 104.78951473 -0.01644872 123.374175 0.00508934 C139.28951055 0.02296333 155.20472937 0.01984815 171.12006283 0.0014143 C189.6459709 -0.02003349 208.17180976 -0.0283968 226.69772851 -0.01613665 C228.67631967 -0.01486258 230.65491083 -0.01360509 232.63350201 -0.01236439 C234.09339542 -0.01143873 234.09339542 -0.01143873 235.58278162 -0.01049438 C242.41186212 -0.00705361 249.24089839 -0.01284212 256.06997204 -0.0222826 C264.40093686 -0.03354727 272.73175109 -0.03036895 281.06269886 -0.00915962 C285.30592948 0.00129015 289.54890982 0.00557744 293.7921381 -0.00775623 C333.0734793 -0.12099703 333.0734793 -0.12099703 348.46869564 8.27289867 C349.11773861 8.61143871 349.76678158 8.94997875 350.43549252 9.29877758 C356.09340913 12.34826541 361.52221496 15.90552903 366.03119564 20.52289867 C366.03119564 21.18289867 366.03119564 21.84289867 366.03119564 22.52289867 C366.89744564 22.86321117 366.89744564 22.86321117 367.78119564 23.21039867 C370.62859373 24.87138089 372.15186757 26.83814429 374.03119564 29.52289867 C374.03119564 30.18289867 374.03119564 30.84289867 374.03119564 31.52289867 C374.69119564 31.52289867 375.35119564 31.52289867 376.03119564 31.52289867 C379.69759651 38.06131355 383.15594586 44.59616056 386.03119564 51.52289867 C386.37537533 52.33371899 386.71955502 53.1445393 387.07416439 53.97992992 C390.09830788 62.01551119 390.24057824 70.75209801 390.58071041 79.23816967 C390.62309285 80.28635238 390.66547528 81.3345351 390.70914203 82.41448092 C391.17732982 95.03018901 391.17931358 107.6433299 391.17645931 120.26606274 C391.17946004 122.95633098 391.18283765 125.64659652 391.18663692 128.33686352 C391.19484568 134.82138072 391.19768715 141.30588882 391.1982493 147.79041079 C391.19872861 153.06808046 391.20080369 158.3457472 391.20394993 163.62341595 C391.21272516 178.65346646 391.21737355 193.6835099 391.21661945 208.713563 C391.21655952 209.92194295 391.21655952 209.92194295 391.21649837 211.15473461 C391.21645749 211.96132604 391.21641661 212.76791748 391.21637449 213.59895107 C391.21596759 226.68510891 391.22555655 239.77123804 391.23963674 252.85738757 C391.25404799 266.35963415 391.26090451 279.86186675 391.26004297 293.3641212 C391.25971292 300.91868958 391.26237559 308.47322775 391.27322102 316.02778912 C391.28238831 322.45322289 391.28445024 328.87861271 391.27771159 335.30405024 C391.27447918 338.57145975 391.27538777 341.83876904 391.28306484 345.10617352 C391.34792155 374.64341446 391.00867706 402.44781315 369.39447689 425.15180492 C368.61459408 425.93426586 367.83471127 426.7167268 367.03119564 427.52289867 C366.28225033 428.29504711 365.53330502 429.06719555 364.76166439 429.86274242 C347.42987373 446.6771662 326.31250516 449.70346454 303.15667629 449.59806347 C300.25320861 449.58506349 297.34978795 449.57872031 294.44629574 449.57392406 C287.20355496 449.56067967 279.96085646 449.53705713 272.71814632 449.5125227 C259.56057944 449.46855732 246.40385549 449.45776443 233.24628353 449.50629711 C229.00772211 449.52089794 224.76952023 449.5198026 220.5309515 449.50825024 C215.19704719 449.4955849 209.86434646 449.51881534 204.53065395 449.56663036 C202.52163343 449.57900784 200.51249967 449.57949867 198.50347805 449.56730175 C195.72137786 449.55253859 192.94287141 449.58140051 190.16107845 449.62055492 C189.35106129 449.60630474 188.54104412 449.59205456 187.70648098 449.57737255 C180.85418338 449.7519327 177.67132477 452.74042433 173.03119564 457.52289867 C172.27111958 458.26785217 171.51104351 459.01280567 170.72793484 459.78033352 C168.10057402 462.36420398 165.50774781 464.97956019 162.91840267 467.60151196 C161.92879651 468.59960505 160.93892051 469.59743066 159.94879818 470.59501171 C157.83160432 472.72881003 155.71582543 474.86399781 153.60102367 477.00016689 C150.25011069 480.38394528 146.89303163 483.76156099 143.53458309 487.13785839 C142.38037204 488.29832935 141.226161 489.45880031 140.07194996 490.61927128 C139.49432211 491.20001526 138.91669425 491.78075923 138.32156253 492.37910151 C130.51489404 500.22863425 122.71285067 508.08267891 114.92523861 515.95112133 C109.65557223 521.27538698 104.37696206 526.59060759 99.08807933 531.89578712 C96.29657159 534.69663066 93.50977276 537.50181669 90.73395824 540.31822109 C88.12305441 542.9672013 85.50049496 545.60407324 82.86887264 548.2324667 C81.45728581 549.64839854 80.05816348 551.07672331 78.65958309 552.50550365 C72.35450328 558.77080681 65.70465507 564.34835942 56.53119564 565.14789867 C50.22828523 564.72398612 44.65932897 562.0180293 40.10150814 557.69086742 C34.36624752 550.7344628 34.88115708 542.62038658 34.91767025 533.9857893 C34.91752422 533.06778545 34.9173782 532.14978161 34.91722775 531.20395947 C34.91791962 528.19566444 34.92567781 525.18743277 34.93353939 522.17914867 C34.93540615 520.08307968 34.93682884 517.98701025 34.93782711 515.89094067 C34.94163197 510.39353242 34.95144481 504.8961509 34.96253109 499.39875317 C34.97278899 493.78128451 34.97733409 488.16381151 34.98236752 482.54633617 C34.993069 471.53851198 35.01012088 460.53070756 35.03119564 449.52289867 C34.19340572 449.5273399 33.35561581 449.53178112 32.49243832 449.53635693 C24.54947134 449.57663594 16.60653927 449.60698507 8.66349316 449.62652302 C4.58110052 449.63690572 0.49879314 449.65096258 -3.58355045 449.67377758 C-7.53228167 449.69570466 -11.48093151 449.70750861 -15.42971897 449.71265316 C-16.92700065 449.71631362 -18.42427851 449.72346014 -19.921525 449.73435879 C-43.76843446 449.9008454 -61.57693954 443.75562606 -79.64067936 427.96821117 C-80.96880436 426.52289867 -80.96880436 426.52289867 -80.96880436 424.52289867 C-81.62880436 424.52289867 -82.28880436 424.52289867 -82.96880436 424.52289867 C-82.96880436 423.86289867 -82.96880436 423.20289867 -82.96880436 422.52289867 C-83.62880436 422.52289867 -84.28880436 422.52289867 -84.96880436 422.52289867 C-97.7965193 407.33643514 -101.89254878 389.52650368 -102.2780695 370.15639782 C-102.2983384 369.27023151 -102.3186073 368.38406521 -102.33949041 367.47104537 C-102.40438076 364.53048659 -102.46217533 361.58985204 -102.51860905 358.64911938 C-102.53947622 357.61114165 -102.56034339 356.57316392 -102.5818429 355.50373232 C-103.10845797 328.86695061 -103.15100648 302.22896951 -103.168993 275.58784175 C-103.1718148 271.44190303 -103.17605905 267.29596644 -103.18049717 263.15002918 C-103.19260353 251.57677358 -103.20293823 240.00351957 -103.20637226 228.4302578 C-103.20659183 227.70101479 -103.20681139 226.97177179 -103.20703761 226.22043051 C-103.20725589 225.49000636 -103.20747417 224.75958221 -103.20769906 224.00702399 C-103.20814245 222.52818469 -103.20858902 221.04934539 -103.20903873 219.5705061 C-103.20926016 218.83703669 -103.20948159 218.10356728 -103.20970973 217.34787152 C-103.21368463 205.38125764 -103.23125845 193.41470358 -103.25439826 181.44811293 C-103.27818806 169.04235311 -103.29057654 156.63662346 -103.29174018 144.2308405 C-103.29264942 137.31212422 -103.29821531 130.39348749 -103.31655979 123.47479343 C-103.33369157 116.99404195 -103.33515749 110.51340102 -103.32642078 104.03263187 C-103.32565583 101.67172113 -103.32992061 99.31080193 -103.33987904 96.94991207 C-103.42140661 76.40498669 -103.234236 54.95272258 -90.96880436 37.52289867 C-90.33458561 36.59992992 -89.70036686 35.67696117 -89.04692936 34.72602367 C-85.67417272 29.93315898 -82.65568282 26.08983564 -77.96880436 22.52289867 C-77.24692936 21.75977367 -76.52505436 20.99664867 -75.78130436 20.21039867 C-54.35387514 -0.26470036 -27.70577078 -0.08719799 0 0 Z " fill="#39ABFE" transform="translate(122.96880435943604,15.47710132598877)"/>
<path d="M0 0 C1.15892132 0.12043167 2.31784264 0.24086334 3.51188278 0.36494446 C17.57347749 1.94298672 31.15699479 4.68899009 44.6875 8.8125 C43.24672648 13.56030417 40.4441506 16.46867603 36.98933411 19.86470032 C36.40044913 20.45544301 35.81156414 21.0461857 35.20483416 21.65482968 C33.23060331 23.63165926 31.24585044 25.59757215 29.26098633 27.5637207 C27.84284436 28.97937916 26.42536997 30.39570664 25.0085144 31.81265259 C21.95558443 34.86287632 18.89795222 37.9082787 15.83658791 40.950037 C10.99222782 45.76337746 6.15826107 50.58706565 1.3256073 55.41215515 C-6.32422581 63.04749197 -13.98124411 70.67557799 -21.64122134 78.30073661 C-35.34493561 91.94260966 -49.03661555 105.59655561 -62.72544271 119.25336522 C-67.52747921 124.04359747 -72.33267822 128.83062811 -77.14057291 133.61498034 C-80.13825518 136.59878309 -83.13390975 139.58461584 -86.12912369 142.57089615 C-87.51368837 143.95041417 -88.89913287 145.32904983 -90.28554344 146.70671272 C-99.52068673 155.81952407 -99.52068673 155.81952407 -108.0807085 165.55958843 C-108.4871997 165.97304925 -108.89369089 166.38651007 -109.3125 166.8125 C-109.9725 166.8125 -110.6325 166.8125 -111.3125 166.8125 C-111.3125 167.4725 -111.3125 168.1325 -111.3125 168.8125 C-112.81640625 170.29296875 -112.81640625 170.29296875 -114.875 172 C-120.08870259 176.44266207 -124.89331952 181.10647675 -129.32836914 186.33007812 C-134.12699346 191.83577758 -139.32156191 196.94610107 -144.49609375 202.09375 C-145.56248085 203.15826772 -146.62864419 204.22300962 -147.69459534 205.28796387 C-150.47555407 208.06513833 -153.25950444 210.83929425 -156.04412842 213.61279297 C-158.8951948 216.45355638 -161.74336669 219.29721872 -164.59179688 222.140625 C-170.16256518 227.7007283 -175.73650319 233.25764018 -181.3125 238.8125 C-185.5145042 236.89018284 -188.35370711 234.00728645 -191.546875 230.73828125 C-192.14373108 230.1362236 -192.74058716 229.53416595 -193.35552979 228.91386414 C-195.26267565 226.98894085 -197.16302066 225.05748653 -199.0625 223.125 C-209.02140253 212.91330041 -209.02140253 212.91330041 -219.56396484 203.31860352 C-222.76307222 200.56304733 -225.75270191 197.59637551 -228.75 194.625 C-229.68489258 193.72104492 -229.68489258 193.72104492 -230.63867188 192.79882812 C-231.23099609 192.21166016 -231.82332031 191.62449219 -232.43359375 191.01953125 C-232.9639624 190.4985083 -233.49433105 189.97748535 -234.04077148 189.44067383 C-235.51900937 187.54810933 -236.02731726 186.19072571 -236.3125 183.8125 C-234.8984375 181.69140625 -234.8984375 181.69140625 -232.6875 179.375 C-231.86894531 178.51261719 -231.05039063 177.65023437 -230.20703125 176.76171875 C-229.24291439 175.77793295 -228.27801412 174.79491453 -227.3125 173.8125 C-226.75997559 173.24096191 -226.20745117 172.66942383 -225.63818359 172.08056641 C-223.89182967 170.274816 -222.13588172 168.4790805 -220.375 166.6875 C-219.80765137 166.10685791 -219.24030273 165.52621582 -218.65576172 164.92797852 C-217.24662865 163.51651034 -215.78369297 162.1591587 -214.3125 160.8125 C-213.6525 160.8125 -212.9925 160.8125 -212.3125 160.8125 C-212.044375 160.214375 -211.77625 159.61625 -211.5 159 C-210.31332594 156.81402146 -209.21650887 155.39917406 -207.3125 153.8125 C-206.6525 153.8125 -205.9925 153.8125 -205.3125 153.8125 C-205.08301383 153.27282467 -204.85352766 152.73314934 -204.61708736 152.17712021 C-202.92597092 149.11189956 -200.73226535 146.59964739 -198.43910217 143.97857666 C-197.93723456 143.39935312 -197.43536694 142.82012957 -196.91829121 142.2233538 C-195.23140179 140.28206268 -193.53670064 138.34783654 -191.84008789 136.41503906 C-191.24548472 135.73622291 -190.65088155 135.05740676 -190.0382601 134.35802042 C-173.54771417 115.55948178 -156.57964355 97.20779004 -139.375 79.0625 C-138.58423207 78.2267672 -137.79346414 77.3910344 -136.97873354 76.52997637 C-58.67224493 -6.125443 -58.67224493 -6.125443 0 0 Z " fill="#60D1FE" transform="translate(361.3125,60.1875)"/>
<path d="M0 0 C1.70262749 0.12671837 1.70262749 0.12671837 3.43965149 0.2559967 C17.39148272 1.37572903 31.11159548 3.34066804 44.8125 6.1875 C45.1425 6.8475 45.4725 7.5075 45.8125 8.1875 C43.61731264 11.17295481 41.34999901 13.65709541 38.5 16 C35.93148551 18.13113608 33.72720961 20.34070769 31.5715332 22.88671875 C27.87590991 27.16407921 23.97311042 31.18831889 19.98046875 35.1875 C18.9037365 36.26922485 18.9037365 36.26922485 17.80525208 37.37280273 C16.30319473 38.87988218 14.79981744 40.38564717 13.29516602 41.89013672 C10.98360539 44.20391031 8.68019116 46.52560131 6.37695312 48.84765625 C4.91194695 50.31559197 3.4464693 51.78305735 1.98046875 53.25 C1.29091599 53.94673828 0.60136322 54.64347656 -0.10908508 55.36132812 C-0.74702499 55.99619141 -1.3849649 56.63105469 -2.04223633 57.28515625 C-2.60292313 57.84726807 -3.16360992 58.40937988 -3.74128723 58.98852539 C-5.1875 60.1875 -5.1875 60.1875 -7.1875 60.1875 C-7.44917969 60.77660156 -7.71085938 61.36570312 -7.98046875 61.97265625 C-9.2517275 64.30535434 -10.58980531 65.79104368 -12.5 67.625 C-13.07363281 68.18058594 -13.64726562 68.73617187 -14.23828125 69.30859375 C-14.88152344 69.92863281 -15.52476562 70.54867187 -16.1875 71.1875 C-19.4641001 74.45108624 -22.72065946 77.73405982 -25.97172546 81.02302551 C-28.45007929 83.52817096 -30.9337858 86.0279815 -33.41772461 88.52758789 C-34.72971668 89.84972634 -36.03992117 91.17364091 -37.34838867 92.49926758 C-39.24193769 94.41694426 -41.14175812 96.32820408 -43.04296875 98.23828125 C-43.92265572 99.13345207 -43.92265572 99.13345207 -44.82011414 100.04670715 C-46.23844989 101.46543655 -47.70854029 102.83208583 -49.1875 104.1875 C-49.8475 104.1875 -50.5075 104.1875 -51.1875 104.1875 C-51.41436493 104.73968201 -51.64122986 105.29186401 -51.87496948 105.86077881 C-53.57816367 108.880029 -55.72971369 110.96864019 -58.18798828 113.41503906 C-58.695466 113.92280884 -59.20294373 114.43057861 -59.72579956 114.95373535 C-61.39843869 116.62498509 -63.07804217 118.28904556 -64.7578125 119.953125 C-65.92124278 121.11282377 -67.08423126 122.27296592 -68.24679565 123.43353271 C-71.303482 126.48259352 -74.36612744 129.52559963 -77.43005371 132.56738281 C-80.55725165 135.67409913 -83.67877507 138.78650545 -86.80078125 141.8984375 C-92.9241488 148.00037417 -99.0538236 154.09592598 -105.1875 160.1875 C-109.27246751 158.31656846 -112.03258228 155.56779582 -115.125 152.375 C-115.63740234 151.85357422 -116.14980469 151.33214844 -116.67773438 150.79492188 C-117.64813065 149.80726315 -118.61643707 148.81754273 -119.58178711 147.82495117 C-121.76745165 145.59608511 -123.97838083 143.39312986 -126.1875 141.1875 C-127.3559713 140.01922001 -128.52433909 138.85083648 -129.69262695 137.68237305 C-130.33291336 137.04208664 -130.97319977 136.40180023 -131.63288879 135.74211121 C-140.48442586 126.89057414 -149.33596293 118.03903707 -158.1875 109.1875 C-149.22941407 89.58689546 -127.54889042 71.1548656 -112.9375 55.4375 C-112.39439918 54.85160583 -111.85129836 54.26571166 -111.29173994 53.66206312 C-78.2543348 18.08341861 -51.33845995 -3.83350839 0 0 Z " fill="#60D1FE" transform="translate(365.1875,216.8125)"/>
<path d="M0 0 C3.2358338 1.42318974 5.39642262 3.14531104 7.89103699 5.6370697 C8.65236435 6.39275742 9.41369171 7.14844513 10.1980896 7.92703247 C11.43651108 9.17152664 11.43651108 9.17152664 12.69995117 10.44116211 C13.57675034 11.31445663 14.4535495 12.18775116 15.35691833 13.08750916 C17.7571692 15.48046794 20.15283462 17.87783942 22.5462625 20.27761149 C25.05188048 22.78829528 27.56237705 25.29409312 30.07209778 27.80067444 C34.28466229 32.00960168 38.49299502 36.22272559 42.69897461 40.43823242 C47.56334931 45.31349827 52.43489671 50.18150774 57.31021899 55.04582399 C61.49570711 59.22224087 65.67729097 63.4025368 69.85562688 67.58610922 C72.35131887 70.0849209 74.84834641 72.58235767 77.34889793 75.0763073 C80.13441369 77.85498159 82.91172261 80.64176867 85.68823242 83.42944336 C86.51991943 84.25708191 87.35160645 85.08472046 88.20849609 85.93743896 C88.96136398 86.6959465 89.71423187 87.45445404 90.48991394 88.23594666 C91.14748782 88.89427459 91.8050617 89.55260252 92.48256207 90.23087978 C94 92 94 92 95 95 C81.20662657 95.9160642 67.42077879 96.60237824 53.60286617 97.02067471 C47.17959536 97.2218281 40.77750418 97.49244278 34.36645508 97.94213867 C-11.00016745 101.04283106 -11.00016745 101.04283106 -28.32373047 86.14501953 C-38.25846798 77.06070661 -46.96748807 66.78286795 -55 56 C-51.41995112 51.73980737 -47.76385082 47.64011027 -43.82080078 43.70727539 C-43.34199966 43.22832825 -42.86319855 42.7493811 -42.36988831 42.25592041 C-40.81405925 40.70077834 -39.25473784 39.14919135 -37.6953125 37.59765625 C-36.60507635 36.50928861 -35.51506331 35.42069743 -34.42526245 34.33189392 C-31.57688206 31.48730465 -28.72550996 28.64573319 -25.87347412 25.80480957 C-22.95548 22.89710335 -20.04036696 19.98651176 -17.125 17.07617188 C-11.41946016 11.38130919 -5.71075206 5.68963588 0 0 Z " fill="#0070C8" transform="translate(314,322)"/>
<path d="M0 0 C6.1671726 5.11845635 11.86906082 10.65373332 17.5625 16.2890625 C18.05379395 16.77503277 18.54508789 17.26100304 19.05126953 17.76169968 C21.6403707 20.32428952 24.22593586 22.89039275 26.80908203 25.45898438 C28.94383761 27.58030197 31.08567127 29.6940732 33.23388672 31.80175781 C35.8400819 34.35881267 38.43395277 36.9277618 41.01925659 39.50593185 C42.00386563 40.48381649 42.99273382 41.45743186 43.98587036 42.42665482 C45.36674948 43.77609965 46.73071054 45.14279204 48.09375 46.51025391 C48.87427734 47.2826944 49.65480469 48.05513489 50.45898438 48.85098267 C52 51 52 51 52.05531311 52.94815063 C50.54011525 55.8941557 48.36366171 58.02826664 46.02124023 60.31933594 C45.24561234 61.09562096 45.24561234 61.09562096 44.45431519 61.8875885 C42.74609034 63.59372597 41.02749105 65.28899592 39.30859375 66.984375 C38.12109704 68.16627559 36.93426165 69.34884096 35.74806213 70.53204346 C32.6261371 73.64252102 29.49530756 76.74388392 26.36254883 79.84344482 C23.16661903 83.00867181 19.9791781 86.18242168 16.79101562 89.35546875 C10.53563046 95.57869148 4.27080675 101.79231978 -2 108 C-6.08496751 106.12906846 -8.84508228 103.38029582 -11.9375 100.1875 C-12.44990234 99.66607422 -12.96230469 99.14464844 -13.49023438 98.60742188 C-14.46063065 97.61976315 -15.42893707 96.63004273 -16.39428711 95.63745117 C-18.57995165 93.40858511 -20.79088083 91.20562986 -23 89 C-24.1684713 87.83172001 -25.33683909 86.66333648 -26.50512695 85.49487305 C-27.14541336 84.85458664 -27.78569977 84.21430023 -28.44538879 83.55461121 C-37.29692586 74.70307414 -46.14846293 65.85153707 -55 57 C-53.42476254 53.14691234 -50.82252556 50.55256086 -47.90771484 47.68066406 C-47.39048355 47.16314072 -46.87325226 46.64561737 -46.34034729 46.1124115 C-44.63524329 44.40869711 -42.92317232 42.71217022 -41.2109375 41.015625 C-40.025087 39.83350593 -38.83967826 38.65094355 -37.6546936 37.46795654 C-34.53882362 34.35971272 -31.41699366 31.25752263 -28.29388428 28.15655518 C-25.10636381 24.98951498 -21.9245168 21.81678613 -18.7421875 18.64453125 C-12.50033024 12.42410597 -6.25216515 6.21006463 0 0 Z " fill="#49CAFE" transform="translate(262,269)"/>
<path d="M0 0 C4.30816822 0.00914571 8.61627448 -0.00496572 12.92442989 -0.01591969 C21.3384268 -0.03360818 29.75228014 -0.02990864 38.16628243 -0.01826912 C45.0097071 -0.00919792 51.85309183 -0.00802665 58.69652081 -0.01236439 C59.67429145 -0.01297732 60.65206209 -0.01359025 61.65946215 -0.01422176 C63.64639058 -0.01550079 65.633319 -0.01679764 67.62024741 -0.01811212 C86.20492068 -0.02948927 104.78951473 -0.01644872 123.374175 0.00508934 C139.28951055 0.02296333 155.20472937 0.01984815 171.12006283 0.0014143 C189.6459709 -0.02003349 208.17180976 -0.0283968 226.69772851 -0.01613665 C228.67631967 -0.01486258 230.65491083 -0.01360509 232.63350201 -0.01236439 C234.09339542 -0.01143873 234.09339542 -0.01143873 235.58278162 -0.01049438 C242.41186212 -0.00705361 249.24089839 -0.01284212 256.06997204 -0.0222826 C264.40093686 -0.03354727 272.73175109 -0.03036895 281.06269886 -0.00915962 C285.30592948 0.00129015 289.54890982 0.00557744 293.7921381 -0.00775623 C333.0734793 -0.12099703 333.0734793 -0.12099703 348.46869564 8.27289867 C349.11773861 8.61143871 349.76678158 8.94997875 350.43549252 9.29877758 C356.09340913 12.34826541 361.52221496 15.90552903 366.03119564 20.52289867 C366.03119564 21.18289867 366.03119564 21.84289867 366.03119564 22.52289867 C366.89744564 22.86321117 366.89744564 22.86321117 367.78119564 23.21039867 C370.62859373 24.87138089 372.15186757 26.83814429 374.03119564 29.52289867 C374.03119564 30.18289867 374.03119564 30.84289867 374.03119564 31.52289867 C374.69119564 31.52289867 375.35119564 31.52289867 376.03119564 31.52289867 C379.69759651 38.06131355 383.15594586 44.59616056 386.03119564 51.52289867 C386.37537533 52.33371899 386.71955502 53.1445393 387.07416439 53.97992992 C390.09830788 62.01551119 390.24057824 70.75209801 390.58071041 79.23816967 C390.62309285 80.28635238 390.66547528 81.3345351 390.70914203 82.41448092 C391.17732982 95.03018901 391.17931358 107.6433299 391.17645931 120.26606274 C391.17946004 122.95633098 391.18283765 125.64659652 391.18663692 128.33686352 C391.19484568 134.82138072 391.19768715 141.30588882 391.1982493 147.79041079 C391.19872861 153.06808046 391.20080369 158.3457472 391.20394993 163.62341595 C391.21272516 178.65346646 391.21737355 193.6835099 391.21661945 208.713563 C391.21655952 209.92194295 391.21655952 209.92194295 391.21649837 211.15473461 C391.21645749 211.96132604 391.21641661 212.76791748 391.21637449 213.59895107 C391.21596759 226.68510891 391.22555655 239.77123804 391.23963674 252.85738757 C391.25404799 266.35963415 391.26090451 279.86186675 391.26004297 293.3641212 C391.25971292 300.91868958 391.26237559 308.47322775 391.27322102 316.02778912 C391.28238831 322.45322289 391.28445024 328.87861271 391.27771159 335.30405024 C391.27447918 338.57145975 391.27538777 341.83876904 391.28306484 345.10617352 C391.34792155 374.64341446 391.00867706 402.44781315 369.39447689 425.15180492 C368.61459408 425.93426586 367.83471127 426.7167268 367.03119564 427.52289867 C366.28225033 428.29504711 365.53330502 429.06719555 364.76166439 429.86274242 C359.98691881 434.49495829 354.96568345 437.97589869 349.15619564 441.14789867 C348.51343685 441.50319653 347.87067806 441.85849438 347.20844173 442.22455883 C342.57564369 444.62562245 342.57564369 444.62562245 339.82367611 444.10639477 C339.23215755 443.91384106 338.640639 443.72128735 338.03119564 443.52289867 C339.13978939 442.98020336 340.24838314 442.43750805 341.39057064 441.87836742 C342.85421833 441.15592594 344.31775414 440.43325775 345.78119564 439.71039867 C346.51080502 439.35397289 347.24041439 438.99754711 347.99213314 438.63032055 C351.61771376 436.83401015 354.81525994 434.99729581 358.03119564 432.52289867 C358.69119564 432.52289867 359.35119564 432.52289867 360.03119564 432.52289867 C360.03119564 431.86289867 360.03119564 431.20289867 360.03119564 430.52289867 C361.57025814 429.04242992 361.57025814 429.04242992 363.65619564 427.33539867 C378.73074071 414.37657923 385.77061496 396.99664034 388.03119564 377.52289867 C388.27989782 373.18851055 388.29812924 368.87122555 388.2784338 364.53055859 C388.28205542 362.66956459 388.28205542 362.66956459 388.28575021 360.77097476 C388.29037307 357.36682247 388.28614992 353.96290007 388.27798593 350.55876923 C388.27135459 346.87231442 388.27636911 343.18587197 388.27986813 339.4994154 C388.28488824 332.29382221 388.27929629 325.08827523 388.27001783 317.88268779 C388.25959117 309.48092419 388.25970514 301.07917035 388.2601904 292.6774015 C388.26069012 277.68188044 388.25155365 262.68638077 388.23700619 247.69086742 C388.22291559 233.1586369 388.21583572 218.62642519 388.21649837 204.09418774 C388.21655831 202.75105051 388.21655831 202.75105051 388.21661945 201.38077919 C388.21667999 200.03990248 388.21667999 200.03990248 388.21674174 198.67193735 C388.21743256 182.09790504 388.21153663 165.52388069 388.20258852 148.94985097 C388.19957952 143.10088223 388.19850984 137.25191495 388.19805622 131.40294552 C388.19737225 124.27138915 388.19288199 117.1398462 388.18372341 110.00829552 C388.17912459 106.37350951 388.17605282 102.73874057 388.17731762 99.10395145 C388.17862461 95.15637814 388.17213518 91.20883887 388.16490841 87.26127148 C388.16645701 86.12322296 388.16800561 84.98517443 388.16960114 83.81263959 C388.10008587 60.75863962 382.33864316 40.87705261 365.89057064 24.21430492 C349.04923116 8.3622791 329.53672924 3.02773822 306.90929317 3.13521862 C305.44899235 3.13103353 303.98869478 3.12554964 302.5284031 3.11889881 C298.56082092 3.10457929 294.59344883 3.1086461 290.6258558 3.11606562 C286.32919224 3.12082883 282.03257209 3.10825975 277.73592281 3.09804821 C269.33577287 3.08091596 260.93569792 3.08000861 252.53553506 3.08526111 C245.70251567 3.08931464 238.86951832 3.08784526 232.03649998 3.08251286 C231.06125146 3.08176443 230.08600294 3.08101601 229.08120144 3.08024491 C227.09950961 3.07871331 225.11781778 3.07717497 223.13612596 3.07562994 C204.58245443 3.06192494 186.02882516 3.0673284 167.47515462 3.07881515 C150.53299401 3.08874436 133.59094266 3.07580868 116.64879891 3.05188096 C99.21665447 3.02744832 81.78456084 3.01789238 64.35239965 3.02453369 C54.57997224 3.0280168 44.8076288 3.02585412 35.03521442 3.00828266 C26.71589983 2.99350844 18.39672833 2.99299303 10.07741638 3.01035357 C5.84016006 3.01882338 1.60315879 3.02111261 -2.63408375 3.00570202 C-31.7255631 2.43435591 -31.7255631 2.43435591 -58.96880436 11.52289867 C-59.7615778 11.94184399 -60.55435123 12.3607893 -61.37114811 12.79242992 C-77.92436472 22.05100871 -90.95698265 37.56906981 -96.96880436 55.52289867 C-100.82651526 70.19401875 -100.39602763 85.13539292 -100.34631932 100.19026053 C-100.33737484 103.90870955 -100.34594984 107.62712739 -100.35218143 111.34557629 C-100.36161112 118.60578659 -100.35512189 125.86589665 -100.34291849 133.12609944 C-100.32921862 141.59552562 -100.33094325 150.06492861 -100.33305182 158.53436305 C-100.33623294 173.65076061 -100.3246227 188.76711085 -100.304986 203.88349438 C-100.28596872 218.5270637 -100.27890397 233.17057765 -100.28447819 247.81415844 C-100.2905441 263.7964971 -100.29034533 279.7788115 -100.27899235 295.76114815 C-100.27778517 297.46697628 -100.27657918 299.17280441 -100.27537441 300.87863255 C-100.27477087 301.71774695 -100.27416734 302.55686136 -100.27354551 303.42140347 C-100.26967717 309.31553681 -100.2700557 315.20966106 -100.27196026 321.10379505 C-100.27408828 328.28940487 -100.26881182 335.47496637 -100.25434671 342.66056261 C-100.24713369 346.32184557 -100.24299916 349.98305836 -100.24759007 353.64434719 C-100.25245625 357.62204354 -100.24169543 361.59961378 -100.22950077 365.57729626 C-100.23328009 366.7213763 -100.23705942 367.86545635 -100.24095327 369.04420549 C-100.1341831 388.80349587 -94.95157882 405.32972267 -82.38677311 420.61274242 C-80.96880436 422.52289867 -80.96880436 422.52289867 -79.96880436 425.52289867 C-78.65990523 426.23634474 -77.32274464 426.89914557 -75.96880436 427.52289867 C-74.87718797 428.40469099 -73.81478137 429.3236309 -72.78130436 430.27289867 C-61.37479517 440.14575956 -47.95070379 445.68190256 -32.96880436 447.52289867 C-33.29880436 448.18289867 -33.62880436 448.84289867 -33.96880436 449.52289867 C-51.51523595 447.62775336 -68.88727413 439.67044628 -80.96880436 426.52289867 C-80.96880436 425.86289867 -80.96880436 425.20289867 -80.96880436 424.52289867 C-81.62880436 424.52289867 -82.28880436 424.52289867 -82.96880436 424.52289867 C-82.96880436 423.86289867 -82.96880436 423.20289867 -82.96880436 422.52289867 C-83.62880436 422.52289867 -84.28880436 422.52289867 -84.96880436 422.52289867 C-97.7965193 407.33643514 -101.89254878 389.52650368 -102.2780695 370.15639782 C-102.2983384 369.27023151 -102.3186073 368.38406521 -102.33949041 367.47104537 C-102.40438076 364.53048659 -102.46217533 361.58985204 -102.51860905 358.64911938 C-102.53947622 357.61114165 -102.56034339 356.57316392 -102.5818429 355.50373232 C-103.10845797 328.86695061 -103.15100648 302.22896951 -103.168993 275.58784175 C-103.1718148 271.44190303 -103.17605905 267.29596644 -103.18049717 263.15002918 C-103.19260353 251.57677358 -103.20293823 240.00351957 -103.20637226 228.4302578 C-103.20659183 227.70101479 -103.20681139 226.97177179 -103.20703761 226.22043051 C-103.20725589 225.49000636 -103.20747417 224.75958221 -103.20769906 224.00702399 C-103.20814245 222.52818469 -103.20858902 221.04934539 -103.20903873 219.5705061 C-103.20926016 218.83703669 -103.20948159 218.10356728 -103.20970973 217.34787152 C-103.21368463 205.38125764 -103.23125845 193.41470358 -103.25439826 181.44811293 C-103.27818806 169.04235311 -103.29057654 156.63662346 -103.29174018 144.2308405 C-103.29264942 137.31212422 -103.29821531 130.39348749 -103.31655979 123.47479343 C-103.33369157 116.99404195 -103.33515749 110.51340102 -103.32642078 104.03263187 C-103.32565583 101.67172113 -103.32992061 99.31080193 -103.33987904 96.94991207 C-103.42140661 76.40498669 -103.234236 54.95272258 -90.96880436 37.52289867 C-90.33458561 36.59992992 -89.70036686 35.67696117 -89.04692936 34.72602367 C-85.67417272 29.93315898 -82.65568282 26.08983564 -77.96880436 22.52289867 C-77.24692936 21.75977367 -76.52505436 20.99664867 -75.78130436 20.21039867 C-54.35387514 -0.26470036 -27.70577078 -0.08719799 0 0 Z " fill="#FBFBF8" transform="translate(122.96880435943604,15.47710132598877)"/>
<path d="M0 0 C0 0.33 0 0.66 0 1 C-1.03898437 1.23074219 -2.07796875 1.46148438 -3.1484375 1.69921875 C-23.24034415 6.32337408 -40.22192679 16.93266709 -51.875 34.4375 C-57.47912548 43.89866149 -60.70281498 53.08041263 -62 64 C-63.29608753 61.83985411 -64.03382057 60.50537594 -63.86328125 57.95703125 C-63.26555368 55.62970899 -62.66114154 53.3102811 -62 51 C-61.79117188 50.23945312 -61.58234375 49.47890625 -61.3671875 48.6953125 C-59.70609887 43.17744337 -57.28442169 38.71132983 -54 34 C-53.36449219 33.07445312 -52.72898437 32.14890625 -52.07421875 31.1953125 C-48.70169385 26.40645417 -45.6842813 22.5649604 -41 19 C-40.278125 18.236875 -39.55625 17.47375 -38.8125 16.6875 C-29.35842569 7.65360677 -13.6774649 -3.41936622 0 0 Z " fill="#EEF6F9" transform="translate(86,19)"/>
<path d="M0 0 C1.56889484 2.95281081 2.65379925 5.88655968 3.6875 9.0625 C6.52476626 16.96254622 10.91965772 23.76198506 16.4375 30.0625 C19 33 19 33 19 35 C19.59425781 35.27328125 20.18851563 35.5465625 20.80078125 35.828125 C22.92677462 36.96098115 24.42178786 38.1281607 26.1875 39.75 C37.59400918 49.62286089 51.01810057 55.15900388 66 57 C65.505 57.99 65.505 57.99 65 59 C47.45356841 57.10485469 30.08153023 49.14754761 18 36 C18 35.34 18 34.68 18 34 C17.34 34 16.68 34 16 34 C16 33.34 16 32.68 16 32 C15.34 32 14.68 32 14 32 C6.89059197 23.58332046 1.05423092 12.90000079 -1 2 C-0.67 1.34 -0.34 0.68 0 0 Z " fill="#F2F8F9" transform="translate(24,406)"/>
<path d="M0 0 C0.66 0.33 1.32 0.66 2 1 C-1.96 4.3 -5.92 7.6 -10 11 C-10.66 10.67 -11.32 10.34 -12 10 C-10.37744772 8.51814875 -8.75188112 7.03959744 -7.125 5.5625 C-6.22007813 4.73878906 -5.31515625 3.91507813 -4.3828125 3.06640625 C-2 1 -2 1 0 0 Z " fill="#22A0FF" transform="translate(57,30)"/>
<path d="M0 0 C2.25245881 2.68841859 3.88213958 4.64641875 5 8 C6.65204456 8.70211894 8.31923769 9.36971413 10 10 C10.33 10.66 10.66 11.32 11 12 C8.16157499 11.91651691 6.45950686 11.4276272 4.3671875 9.48046875 C1.91937326 6.67198623 0.19028853 4.57086558 -1 1 C-0.67 0.67 -0.34 0.34 0 0 Z " fill="#EEF6F9" transform="translate(160,565)"/>
<path d="M0 0 C0.99 0.33 1.98 0.66 3 1 C3 1.66 3 2.32 3 3 C3.928125 3.37125 3.928125 3.37125 4.875 3.75 C7.35068687 5.20628639 7.95125002 6.37812506 9 9 C5.63983107 7.87994369 4.30935087 6.62788203 2 4 C2 3.34 2 2.68 2 2 C1.34 2 0.68 2 0 2 C0 1.34 0 0.68 0 0 Z " fill="#E2F1FA" transform="translate(40,438)"/>
<path d="M0 0 C0.66 0.33 1.32 0.66 2 1 C-0.31 3.31 -2.62 5.62 -5 8 C-5.66 7.34 -6.32 6.68 -7 6 C-4.69 4.02 -2.38 2.04 0 0 Z " fill="#E3F2F9" transform="translate(45,38)"/>
</svg>
